<mxfile host="65bd71144e">
    <diagram id="R2lEEEUBdFMjLlhIrx00" name="Page-1">
        <mxGraphModel dx="1094" dy="571" grid="1" gridSize="10" guides="1" tooltips="1" connect="1" arrows="1" fold="1" page="1" pageScale="1" pageWidth="1169" pageHeight="827" background="#1C2120" math="0" shadow="0" extFonts="Permanent Marker^https://fonts.googleapis.com/css?family=Permanent+Marker">
            <root>
                <mxCell id="0"/>
                <mxCell id="1" parent="0"/>
                <mxCell id="2MPzYWeAmWjRKUz-pr3W-1" style="edgeStyle=orthogonalEdgeStyle;rounded=0;orthogonalLoop=1;jettySize=auto;html=1;endArrow=none;endFill=0;labelBackgroundColor=#EEEEEE;strokeColor=#FFFFFF;fontColor=default;labelBorderColor=default;" parent="1" source="2MPzYWeAmWjRKUz-pr3W-9" target="2MPzYWeAmWjRKUz-pr3W-98" edge="1">
                    <mxGeometry relative="1" as="geometry">
                        <Array as="points">
                            <mxPoint x="1458" y="240"/>
                            <mxPoint x="1513" y="240"/>
                        </Array>
                        <mxPoint x="1512.5" y="150" as="targetPoint"/>
                    </mxGeometry>
                </mxCell>
                <mxCell id="2MPzYWeAmWjRKUz-pr3W-2" style="edgeStyle=orthogonalEdgeStyle;rounded=0;orthogonalLoop=1;jettySize=auto;html=1;entryX=0.5;entryY=1;entryDx=0;entryDy=0;endArrow=none;endFill=0;labelBackgroundColor=#EEEEEE;strokeColor=#FFFFFF;fontColor=default;labelBorderColor=default;" parent="1" source="2MPzYWeAmWjRKUz-pr3W-9" target="2MPzYWeAmWjRKUz-pr3W-77" edge="1">
                    <mxGeometry relative="1" as="geometry">
                        <Array as="points">
                            <mxPoint x="1458" y="240"/>
                            <mxPoint x="1393" y="240"/>
                        </Array>
                    </mxGeometry>
                </mxCell>
                <mxCell id="2MPzYWeAmWjRKUz-pr3W-3" style="edgeStyle=orthogonalEdgeStyle;rounded=0;orthogonalLoop=1;jettySize=auto;html=1;endArrow=none;endFill=0;labelBackgroundColor=#EEEEEE;strokeColor=#FFFFFF;fontColor=default;labelBorderColor=default;" parent="1" source="2MPzYWeAmWjRKUz-pr3W-9" target="2MPzYWeAmWjRKUz-pr3W-97" edge="1">
                    <mxGeometry relative="1" as="geometry">
                        <Array as="points">
                            <mxPoint x="1458" y="240"/>
                            <mxPoint x="1623" y="240"/>
                        </Array>
                        <mxPoint x="1622.5" y="150" as="targetPoint"/>
                    </mxGeometry>
                </mxCell>
                <mxCell id="2MPzYWeAmWjRKUz-pr3W-4" style="edgeStyle=orthogonalEdgeStyle;rounded=0;orthogonalLoop=1;jettySize=auto;html=1;endArrow=none;endFill=0;labelBackgroundColor=#EEEEEE;strokeColor=#FFFFFF;fontColor=default;labelBorderColor=default;" parent="1" source="2MPzYWeAmWjRKUz-pr3W-9" target="2MPzYWeAmWjRKUz-pr3W-96" edge="1">
                    <mxGeometry relative="1" as="geometry">
                        <Array as="points">
                            <mxPoint x="1458" y="240"/>
                            <mxPoint x="1743" y="240"/>
                        </Array>
                        <mxPoint x="1742.5" y="150" as="targetPoint"/>
                    </mxGeometry>
                </mxCell>
                <mxCell id="2MPzYWeAmWjRKUz-pr3W-5" style="edgeStyle=orthogonalEdgeStyle;rounded=0;orthogonalLoop=1;jettySize=auto;html=1;endArrow=none;endFill=0;labelBackgroundColor=#EEEEEE;strokeColor=#FFFFFF;fontColor=default;labelBorderColor=default;" parent="1" source="2MPzYWeAmWjRKUz-pr3W-9" target="2MPzYWeAmWjRKUz-pr3W-95" edge="1">
                    <mxGeometry relative="1" as="geometry">
                        <Array as="points">
                            <mxPoint x="1458" y="240"/>
                            <mxPoint x="1853" y="240"/>
                        </Array>
                        <mxPoint x="1852.5" y="150" as="targetPoint"/>
                    </mxGeometry>
                </mxCell>
                <mxCell id="2MPzYWeAmWjRKUz-pr3W-6" style="edgeStyle=orthogonalEdgeStyle;rounded=0;orthogonalLoop=1;jettySize=auto;html=1;entryX=0.5;entryY=1;entryDx=0;entryDy=0;endArrow=none;endFill=0;labelBackgroundColor=#EEEEEE;strokeColor=#FFFFFF;fontColor=default;labelBorderColor=default;" parent="1" source="2MPzYWeAmWjRKUz-pr3W-9" target="2MPzYWeAmWjRKUz-pr3W-78" edge="1">
                    <mxGeometry relative="1" as="geometry">
                        <Array as="points">
                            <mxPoint x="1458" y="240"/>
                            <mxPoint x="1283" y="240"/>
                        </Array>
                    </mxGeometry>
                </mxCell>
                <mxCell id="2MPzYWeAmWjRKUz-pr3W-7" style="edgeStyle=orthogonalEdgeStyle;rounded=0;orthogonalLoop=1;jettySize=auto;html=1;entryX=0.5;entryY=1;entryDx=0;entryDy=0;endArrow=none;endFill=0;labelBackgroundColor=#EEEEEE;strokeColor=#FFFFFF;fontColor=default;labelBorderColor=default;" parent="1" source="2MPzYWeAmWjRKUz-pr3W-9" target="2MPzYWeAmWjRKUz-pr3W-80" edge="1">
                    <mxGeometry relative="1" as="geometry">
                        <Array as="points">
                            <mxPoint x="1458" y="240"/>
                            <mxPoint x="1173" y="240"/>
                        </Array>
                    </mxGeometry>
                </mxCell>
                <mxCell id="2MPzYWeAmWjRKUz-pr3W-8" style="edgeStyle=orthogonalEdgeStyle;rounded=0;orthogonalLoop=1;jettySize=auto;html=1;entryX=0.5;entryY=1;entryDx=0;entryDy=0;endArrow=none;endFill=0;labelBackgroundColor=#EEEEEE;strokeColor=#FFFFFF;fontColor=default;labelBorderColor=default;" parent="1" source="2MPzYWeAmWjRKUz-pr3W-9" target="2MPzYWeAmWjRKUz-pr3W-79" edge="1">
                    <mxGeometry relative="1" as="geometry">
                        <Array as="points">
                            <mxPoint x="1458" y="240"/>
                            <mxPoint x="1063" y="240"/>
                        </Array>
                    </mxGeometry>
                </mxCell>
                <mxCell id="2MPzYWeAmWjRKUz-pr3W-9" value="&lt;b&gt;&lt;font style=&quot;font-size: 14px&quot;&gt;Flight&lt;/font&gt;&lt;/b&gt;" style="rounded=0;whiteSpace=wrap;html=1;fillColor=#FFFFFF;strokeColor=#001DBC;fontColor=#000000;labelBorderColor=default;" parent="1" vertex="1">
                    <mxGeometry x="1420" y="565" width="75" height="30" as="geometry"/>
                </mxCell>
                <mxCell id="2MPzYWeAmWjRKUz-pr3W-10" style="edgeStyle=orthogonalEdgeStyle;rounded=0;orthogonalLoop=1;jettySize=auto;html=1;endArrow=none;endFill=0;labelBackgroundColor=#EEEEEE;strokeColor=#FFFFFF;fontColor=default;labelBorderColor=default;" parent="1" source="2MPzYWeAmWjRKUz-pr3W-11" target="2MPzYWeAmWjRKUz-pr3W-63" edge="1">
                    <mxGeometry relative="1" as="geometry">
                        <Array as="points">
                            <mxPoint x="2460" y="860"/>
                            <mxPoint x="1990" y="860"/>
                        </Array>
                    </mxGeometry>
                </mxCell>
                <mxCell id="2MPzYWeAmWjRKUz-pr3W-11" value="&lt;span style=&quot;font-size: 14px&quot;&gt;Ticket&lt;/span&gt;" style="rounded=0;whiteSpace=wrap;html=1;fontStyle=1;fillColor=#FFFFFF;strokeColor=#001DBC;fontColor=#000000;labelBorderColor=default;" parent="1" vertex="1">
                    <mxGeometry x="2422.5" y="780" width="75" height="30" as="geometry"/>
                </mxCell>
                <mxCell id="2MPzYWeAmWjRKUz-pr3W-12" style="edgeStyle=orthogonalEdgeStyle;rounded=0;orthogonalLoop=1;jettySize=auto;html=1;endArrow=none;endFill=0;labelBackgroundColor=#EEEEEE;strokeColor=#FFFFFF;fontColor=default;labelBorderColor=default;" parent="1" source="2MPzYWeAmWjRKUz-pr3W-16" target="2MPzYWeAmWjRKUz-pr3W-56" edge="1">
                    <mxGeometry relative="1" as="geometry">
                        <Array as="points">
                            <mxPoint x="2307" y="430"/>
                            <mxPoint x="2020" y="430"/>
                        </Array>
                    </mxGeometry>
                </mxCell>
                <mxCell id="2MPzYWeAmWjRKUz-pr3W-13" style="edgeStyle=orthogonalEdgeStyle;rounded=0;orthogonalLoop=1;jettySize=auto;html=1;endArrow=none;endFill=0;labelBackgroundColor=#EEEEEE;strokeColor=#FFFFFF;fontColor=default;labelBorderColor=default;" parent="1" source="2MPzYWeAmWjRKUz-pr3W-16" target="2MPzYWeAmWjRKUz-pr3W-60" edge="1">
                    <mxGeometry relative="1" as="geometry">
                        <Array as="points">
                            <mxPoint x="2307" y="430"/>
                            <mxPoint x="2130" y="430"/>
                        </Array>
                    </mxGeometry>
                </mxCell>
                <mxCell id="2MPzYWeAmWjRKUz-pr3W-14" style="edgeStyle=orthogonalEdgeStyle;rounded=0;orthogonalLoop=1;jettySize=auto;html=1;endArrow=none;endFill=0;labelBackgroundColor=#EEEEEE;strokeColor=#FFFFFF;fontColor=default;labelBorderColor=default;" parent="1" source="2MPzYWeAmWjRKUz-pr3W-16" target="2MPzYWeAmWjRKUz-pr3W-58" edge="1">
                    <mxGeometry relative="1" as="geometry">
                        <Array as="points">
                            <mxPoint x="2307" y="430"/>
                            <mxPoint x="2480" y="430"/>
                        </Array>
                    </mxGeometry>
                </mxCell>
                <mxCell id="2MPzYWeAmWjRKUz-pr3W-15" style="edgeStyle=orthogonalEdgeStyle;rounded=0;orthogonalLoop=1;jettySize=auto;html=1;endArrow=none;endFill=0;labelBackgroundColor=#EEEEEE;strokeColor=#FFFFFF;fontColor=default;labelBorderColor=default;" parent="1" source="2MPzYWeAmWjRKUz-pr3W-16" target="2MPzYWeAmWjRKUz-pr3W-59" edge="1">
                    <mxGeometry relative="1" as="geometry">
                        <Array as="points">
                            <mxPoint x="2307" y="430"/>
                            <mxPoint x="2590" y="430"/>
                        </Array>
                    </mxGeometry>
                </mxCell>
                <mxCell id="2MPzYWeAmWjRKUz-pr3W-16" value="&lt;span style=&quot;font-size: 14px&quot;&gt;Crew_Memeber&lt;/span&gt;" style="rounded=0;whiteSpace=wrap;html=1;fontStyle=1;fillColor=#FFFFFF;strokeColor=#001DBC;fontColor=#000000;labelBorderColor=default;" parent="1" vertex="1">
                    <mxGeometry x="2270" y="290" width="120" height="30" as="geometry"/>
                </mxCell>
                <mxCell id="2MPzYWeAmWjRKUz-pr3W-17" style="edgeStyle=orthogonalEdgeStyle;rounded=0;orthogonalLoop=1;jettySize=auto;html=1;entryX=0.5;entryY=0;entryDx=0;entryDy=0;startArrow=none;startFill=0;endArrow=none;endFill=0;labelBackgroundColor=#EEEEEE;strokeColor=#FFFFFF;fontColor=default;labelBorderColor=default;" parent="1" source="2MPzYWeAmWjRKUz-pr3W-24" target="2MPzYWeAmWjRKUz-pr3W-54" edge="1">
                    <mxGeometry relative="1" as="geometry"/>
                </mxCell>
                <mxCell id="2MPzYWeAmWjRKUz-pr3W-18" style="edgeStyle=orthogonalEdgeStyle;rounded=0;orthogonalLoop=1;jettySize=auto;html=1;startArrow=none;startFill=0;endArrow=none;endFill=0;labelBackgroundColor=#EEEEEE;strokeColor=#FFFFFF;fontColor=default;labelBorderColor=default;" parent="1" source="2MPzYWeAmWjRKUz-pr3W-24" target="2MPzYWeAmWjRKUz-pr3W-53" edge="1">
                    <mxGeometry relative="1" as="geometry">
                        <Array as="points">
                            <mxPoint x="773" y="370"/>
                            <mxPoint x="1125" y="370"/>
                        </Array>
                    </mxGeometry>
                </mxCell>
                <mxCell id="2MPzYWeAmWjRKUz-pr3W-19" style="edgeStyle=orthogonalEdgeStyle;rounded=0;orthogonalLoop=1;jettySize=auto;html=1;startArrow=none;startFill=0;endArrow=none;endFill=0;labelBackgroundColor=#EEEEEE;strokeColor=#FFFFFF;fontColor=default;labelBorderColor=default;" parent="1" source="2MPzYWeAmWjRKUz-pr3W-24" target="2MPzYWeAmWjRKUz-pr3W-52" edge="1">
                    <mxGeometry relative="1" as="geometry">
                        <Array as="points">
                            <mxPoint x="773" y="370"/>
                            <mxPoint x="1010" y="370"/>
                        </Array>
                    </mxGeometry>
                </mxCell>
                <mxCell id="2MPzYWeAmWjRKUz-pr3W-20" style="edgeStyle=orthogonalEdgeStyle;rounded=0;orthogonalLoop=1;jettySize=auto;html=1;startArrow=none;startFill=0;endArrow=none;endFill=0;labelBackgroundColor=#EEEEEE;strokeColor=#FFFFFF;fontColor=default;labelBorderColor=default;" parent="1" source="2MPzYWeAmWjRKUz-pr3W-24" target="2MPzYWeAmWjRKUz-pr3W-50" edge="1">
                    <mxGeometry relative="1" as="geometry">
                        <Array as="points">
                            <mxPoint x="773" y="370"/>
                            <mxPoint x="890" y="370"/>
                        </Array>
                    </mxGeometry>
                </mxCell>
                <mxCell id="2MPzYWeAmWjRKUz-pr3W-21" style="edgeStyle=orthogonalEdgeStyle;rounded=0;orthogonalLoop=1;jettySize=auto;html=1;startArrow=none;startFill=0;endArrow=none;endFill=0;labelBackgroundColor=#EEEEEE;strokeColor=#FFFFFF;fontColor=default;labelBorderColor=default;" parent="1" source="2MPzYWeAmWjRKUz-pr3W-24" target="2MPzYWeAmWjRKUz-pr3W-48" edge="1">
                    <mxGeometry relative="1" as="geometry">
                        <Array as="points">
                            <mxPoint x="773" y="370"/>
                            <mxPoint x="660" y="370"/>
                        </Array>
                    </mxGeometry>
                </mxCell>
                <mxCell id="2MPzYWeAmWjRKUz-pr3W-22" style="edgeStyle=orthogonalEdgeStyle;rounded=0;orthogonalLoop=1;jettySize=auto;html=1;startArrow=none;startFill=0;endArrow=none;endFill=0;labelBackgroundColor=#EEEEEE;strokeColor=#FFFFFF;fontColor=default;labelBorderColor=default;" parent="1" source="2MPzYWeAmWjRKUz-pr3W-24" target="2MPzYWeAmWjRKUz-pr3W-49" edge="1">
                    <mxGeometry relative="1" as="geometry">
                        <Array as="points">
                            <mxPoint x="773" y="370"/>
                            <mxPoint x="540" y="370"/>
                        </Array>
                    </mxGeometry>
                </mxCell>
                <mxCell id="2MPzYWeAmWjRKUz-pr3W-23" style="edgeStyle=orthogonalEdgeStyle;rounded=0;orthogonalLoop=1;jettySize=auto;html=1;startArrow=none;startFill=0;endArrow=none;endFill=0;labelBackgroundColor=#EEEEEE;strokeColor=#FFFFFF;fontColor=default;labelBorderColor=default;" parent="1" source="2MPzYWeAmWjRKUz-pr3W-24" target="2MPzYWeAmWjRKUz-pr3W-51" edge="1">
                    <mxGeometry relative="1" as="geometry">
                        <Array as="points">
                            <mxPoint x="773" y="370"/>
                            <mxPoint x="430" y="370"/>
                        </Array>
                    </mxGeometry>
                </mxCell>
                <mxCell id="2MPzYWeAmWjRKUz-pr3W-24" value="&lt;span style=&quot;font-size: 14px&quot;&gt;Pilot&lt;/span&gt;" style="rounded=0;whiteSpace=wrap;html=1;fontStyle=1;fillColor=#FFFFFF;strokeColor=#001DBC;fontColor=#000000;labelBorderColor=default;" parent="1" vertex="1">
                    <mxGeometry x="735" y="325" width="75" height="30" as="geometry"/>
                </mxCell>
                <mxCell id="2MPzYWeAmWjRKUz-pr3W-25" value="&lt;span style=&quot;font-size: 14px&quot;&gt;Boarding_Pass&lt;/span&gt;" style="rounded=0;whiteSpace=wrap;html=1;fontStyle=1;fillColor=#FFFFFF;strokeColor=#001DBC;fontColor=#000000;labelBorderColor=default;" parent="1" vertex="1">
                    <mxGeometry x="1700" y="560" width="120" height="40" as="geometry"/>
                </mxCell>
                <mxCell id="2MPzYWeAmWjRKUz-pr3W-26" style="edgeStyle=orthogonalEdgeStyle;rounded=0;orthogonalLoop=1;jettySize=auto;html=1;entryX=0.5;entryY=0;entryDx=0;entryDy=0;endArrow=none;endFill=0;labelBackgroundColor=#EEEEEE;strokeColor=#FFFFFF;fontColor=default;labelBorderColor=default;" parent="1" source="2MPzYWeAmWjRKUz-pr3W-33" target="2MPzYWeAmWjRKUz-pr3W-74" edge="1">
                    <mxGeometry relative="1" as="geometry"/>
                </mxCell>
                <mxCell id="2MPzYWeAmWjRKUz-pr3W-27" style="edgeStyle=orthogonalEdgeStyle;rounded=0;orthogonalLoop=1;jettySize=auto;html=1;endArrow=none;endFill=0;labelBackgroundColor=#EEEEEE;strokeColor=#FFFFFF;fontColor=default;labelBorderColor=default;" parent="1" source="2MPzYWeAmWjRKUz-pr3W-33" target="2MPzYWeAmWjRKUz-pr3W-71" edge="1">
                    <mxGeometry relative="1" as="geometry">
                        <Array as="points">
                            <mxPoint x="1465" y="950"/>
                            <mxPoint x="1130" y="950"/>
                        </Array>
                    </mxGeometry>
                </mxCell>
                <mxCell id="2MPzYWeAmWjRKUz-pr3W-28" style="edgeStyle=orthogonalEdgeStyle;rounded=0;orthogonalLoop=1;jettySize=auto;html=1;endArrow=none;endFill=0;labelBackgroundColor=#EEEEEE;strokeColor=#FFFFFF;fontColor=default;labelBorderColor=default;" parent="1" source="2MPzYWeAmWjRKUz-pr3W-33" target="2MPzYWeAmWjRKUz-pr3W-73" edge="1">
                    <mxGeometry relative="1" as="geometry">
                        <Array as="points">
                            <mxPoint x="1465" y="950"/>
                            <mxPoint x="1240" y="950"/>
                        </Array>
                    </mxGeometry>
                </mxCell>
                <mxCell id="2MPzYWeAmWjRKUz-pr3W-29" style="edgeStyle=orthogonalEdgeStyle;rounded=0;orthogonalLoop=1;jettySize=auto;html=1;endArrow=none;endFill=0;labelBackgroundColor=#EEEEEE;strokeColor=#FFFFFF;fontColor=default;labelBorderColor=default;" parent="1" source="2MPzYWeAmWjRKUz-pr3W-33" target="2MPzYWeAmWjRKUz-pr3W-70" edge="1">
                    <mxGeometry relative="1" as="geometry">
                        <Array as="points">
                            <mxPoint x="1465" y="950"/>
                            <mxPoint x="1350" y="950"/>
                        </Array>
                    </mxGeometry>
                </mxCell>
                <mxCell id="2MPzYWeAmWjRKUz-pr3W-30" style="edgeStyle=orthogonalEdgeStyle;rounded=0;orthogonalLoop=1;jettySize=auto;html=1;endArrow=none;endFill=0;labelBackgroundColor=#EEEEEE;strokeColor=#FFFFFF;fontColor=default;labelBorderColor=default;" parent="1" source="2MPzYWeAmWjRKUz-pr3W-33" target="2MPzYWeAmWjRKUz-pr3W-72" edge="1">
                    <mxGeometry relative="1" as="geometry">
                        <Array as="points">
                            <mxPoint x="1465" y="950"/>
                            <mxPoint x="1580" y="950"/>
                        </Array>
                    </mxGeometry>
                </mxCell>
                <mxCell id="2MPzYWeAmWjRKUz-pr3W-31" style="edgeStyle=orthogonalEdgeStyle;rounded=0;orthogonalLoop=1;jettySize=auto;html=1;entryX=0.5;entryY=0;entryDx=0;entryDy=0;endArrow=none;endFill=0;labelBackgroundColor=#EEEEEE;strokeColor=#FFFFFF;fontColor=default;labelBorderColor=default;" parent="1" source="2MPzYWeAmWjRKUz-pr3W-33" target="2MPzYWeAmWjRKUz-pr3W-75" edge="1">
                    <mxGeometry relative="1" as="geometry">
                        <Array as="points">
                            <mxPoint x="1465" y="950"/>
                            <mxPoint x="1700" y="950"/>
                        </Array>
                    </mxGeometry>
                </mxCell>
                <mxCell id="2MPzYWeAmWjRKUz-pr3W-32" style="edgeStyle=orthogonalEdgeStyle;rounded=0;orthogonalLoop=1;jettySize=auto;html=1;endArrow=none;endFill=0;labelBackgroundColor=#EEEEEE;strokeColor=#FFFFFF;fontColor=default;labelBorderColor=default;" parent="1" source="2MPzYWeAmWjRKUz-pr3W-33" target="2MPzYWeAmWjRKUz-pr3W-76" edge="1">
                    <mxGeometry relative="1" as="geometry">
                        <Array as="points">
                            <mxPoint x="1465" y="950"/>
                            <mxPoint x="1835" y="950"/>
                        </Array>
                    </mxGeometry>
                </mxCell>
                <mxCell id="2MPzYWeAmWjRKUz-pr3W-33" value="&lt;span&gt;&lt;font style=&quot;font-size: 14px&quot;&gt;Passenger&lt;/font&gt;&lt;/span&gt;" style="rounded=0;whiteSpace=wrap;html=1;fontStyle=1;fillColor=#FFFFFF;strokeColor=#FFFFFF;fontColor=#000000;labelBorderColor=default;" parent="1" vertex="1">
                    <mxGeometry x="1427.5" y="870" width="75" height="30" as="geometry"/>
                </mxCell>
                <mxCell id="2MPzYWeAmWjRKUz-pr3W-34" style="edgeStyle=orthogonalEdgeStyle;rounded=0;orthogonalLoop=1;jettySize=auto;html=1;entryX=0.5;entryY=0;entryDx=0;entryDy=0;endArrow=none;endFill=0;labelBackgroundColor=#EEEEEE;strokeColor=#FFFFFF;fontColor=default;labelBorderColor=default;" parent="1" target="2MPzYWeAmWjRKUz-pr3W-47" edge="1">
                    <mxGeometry relative="1" as="geometry">
                        <Array as="points">
                            <mxPoint x="1038" y="690"/>
                            <mxPoint x="860" y="690"/>
                        </Array>
                        <mxPoint x="1060" y="690" as="sourcePoint"/>
                    </mxGeometry>
                </mxCell>
                <mxCell id="2MPzYWeAmWjRKUz-pr3W-35" style="edgeStyle=orthogonalEdgeStyle;rounded=0;orthogonalLoop=1;jettySize=auto;html=1;entryX=0.5;entryY=0;entryDx=0;entryDy=0;endArrow=none;endFill=0;labelBackgroundColor=#EEEEEE;strokeColor=#FFFFFF;fontColor=default;labelBorderColor=default;" parent="1" target="2MPzYWeAmWjRKUz-pr3W-46" edge="1">
                    <mxGeometry relative="1" as="geometry">
                        <mxPoint x="1060" y="690" as="sourcePoint"/>
                    </mxGeometry>
                </mxCell>
                <mxCell id="2MPzYWeAmWjRKUz-pr3W-36" style="edgeStyle=orthogonalEdgeStyle;rounded=0;orthogonalLoop=1;jettySize=auto;html=1;entryX=0.5;entryY=0;entryDx=0;entryDy=0;exitX=0.5;exitY=1;exitDx=0;exitDy=0;endArrow=none;endFill=0;labelBackgroundColor=#EEEEEE;strokeColor=#FFFFFF;fontColor=default;labelBorderColor=default;" parent="1" source="2MPzYWeAmWjRKUz-pr3W-38" target="2MPzYWeAmWjRKUz-pr3W-45" edge="1">
                    <mxGeometry relative="1" as="geometry">
                        <Array as="points">
                            <mxPoint x="1068" y="790"/>
                        </Array>
                    </mxGeometry>
                </mxCell>
                <mxCell id="2MPzYWeAmWjRKUz-pr3W-37" style="edgeStyle=orthogonalEdgeStyle;rounded=0;orthogonalLoop=1;jettySize=auto;html=1;endArrow=none;endFill=0;labelBackgroundColor=#EEEEEE;strokeColor=#FFFFFF;fontColor=default;labelBorderColor=default;" parent="1" target="2MPzYWeAmWjRKUz-pr3W-44" edge="1">
                    <mxGeometry relative="1" as="geometry">
                        <Array as="points">
                            <mxPoint x="1038" y="690"/>
                            <mxPoint x="1220" y="690"/>
                        </Array>
                        <mxPoint x="1068" y="690" as="sourcePoint"/>
                    </mxGeometry>
                </mxCell>
                <mxCell id="2MPzYWeAmWjRKUz-pr3W-38" value="&lt;span&gt;&lt;font style=&quot;font-size: 14px&quot;&gt;Airline&lt;/font&gt;&lt;/span&gt;" style="rounded=0;whiteSpace=wrap;html=1;fontStyle=1;fillColor=#FFFFFF;strokeColor=#001DBC;fontColor=#000000;labelBorderColor=default;" parent="1" vertex="1">
                    <mxGeometry x="1030" y="615" width="75" height="30" as="geometry"/>
                </mxCell>
                <mxCell id="2MPzYWeAmWjRKUz-pr3W-39" value="Pilots" style="shape=rhombus;perimeter=rhombusPerimeter;whiteSpace=wrap;html=1;align=center;fontSize=14;fillColor=#FFFFFF;strokeColor=#001DBC;fontColor=#000000;labelBorderColor=default;" parent="1" vertex="1">
                    <mxGeometry x="1160" y="310" width="120" height="60" as="geometry"/>
                </mxCell>
                <mxCell id="2MPzYWeAmWjRKUz-pr3W-40" value="use" style="shape=rhombus;perimeter=rhombusPerimeter;whiteSpace=wrap;html=1;align=center;fontSize=14;fillColor=#FFFFFF;strokeColor=#001DBC;fontColor=#000000;labelBorderColor=default;" parent="1" vertex="1">
                    <mxGeometry x="1240" y="600" width="120" height="60" as="geometry"/>
                </mxCell>
                <mxCell id="2MPzYWeAmWjRKUz-pr3W-41" value="has" style="shape=rhombus;perimeter=rhombusPerimeter;whiteSpace=wrap;html=1;align=center;fontSize=14;fillColor=#FFFFFF;strokeColor=#001DBC;fontColor=#000000;labelBorderColor=default;" parent="1" vertex="1">
                    <mxGeometry x="1552.5" y="683" width="120" height="60" as="geometry"/>
                </mxCell>
                <mxCell id="2MPzYWeAmWjRKUz-pr3W-42" value="gets" style="shape=rhombus;perimeter=rhombusPerimeter;whiteSpace=wrap;html=1;align=center;fontSize=14;fillColor=#FFFFFF;strokeColor=#001DBC;fontColor=#000000;labelBorderColor=default;" parent="1" vertex="1">
                    <mxGeometry x="2042.5" y="670" width="120" height="60" as="geometry"/>
                </mxCell>
                <mxCell id="2MPzYWeAmWjRKUz-pr3W-43" value="works in" style="shape=rhombus;perimeter=rhombusPerimeter;whiteSpace=wrap;html=1;align=center;fontSize=14;fillColor=#FFFFFF;strokeColor=#001DBC;fontColor=#000000;labelBorderColor=default;" parent="1" vertex="1">
                    <mxGeometry x="1602.5" y="440" width="120" height="60" as="geometry"/>
                </mxCell>
                <mxCell id="2MPzYWeAmWjRKUz-pr3W-44" value="&lt;u&gt;aeroplane_id&lt;/u&gt;" style="ellipse;whiteSpace=wrap;html=1;align=center;fontSize=14;fillColor=#FFFFFF;strokeColor=#001DBC;fontColor=#000000;labelBorderColor=default;" parent="1" vertex="1">
                    <mxGeometry x="1132.5" y="790" width="100" height="40" as="geometry"/>
                </mxCell>
                <mxCell id="2MPzYWeAmWjRKUz-pr3W-45" value="&lt;u&gt;airline_id&lt;/u&gt;" style="ellipse;whiteSpace=wrap;html=1;align=center;fontSize=14;fillColor=#FFFFFF;strokeColor=#001DBC;fontColor=#000000;labelBorderColor=default;" parent="1" vertex="1">
                    <mxGeometry x="1022.5" y="790" width="100" height="40" as="geometry"/>
                </mxCell>
                <mxCell id="2MPzYWeAmWjRKUz-pr3W-46" value="modelnumber" style="ellipse;whiteSpace=wrap;html=1;align=center;fontSize=14;fillColor=#FFFFFF;strokeColor=#001DBC;fontColor=#000000;labelBorderColor=default;" parent="1" vertex="1">
                    <mxGeometry x="920" y="790" width="100" height="40" as="geometry"/>
                </mxCell>
                <mxCell id="2MPzYWeAmWjRKUz-pr3W-47" value="manufacturer" style="ellipse;whiteSpace=wrap;html=1;align=center;fontSize=14;fillColor=#FFFFFF;strokeColor=#001DBC;fontColor=#000000;labelBorderColor=default;" parent="1" vertex="1">
                    <mxGeometry x="810" y="790" width="100" height="40" as="geometry"/>
                </mxCell>
                <mxCell id="2MPzYWeAmWjRKUz-pr3W-48" value="last_name" style="ellipse;whiteSpace=wrap;html=1;align=center;fontSize=14;fillColor=#FFFFFF;strokeColor=#001DBC;fontColor=#000000;labelBorderColor=default;" parent="1" vertex="1">
                    <mxGeometry x="610" y="420" width="100" height="40" as="geometry"/>
                </mxCell>
                <mxCell id="2MPzYWeAmWjRKUz-pr3W-49" value="first_name" style="ellipse;whiteSpace=wrap;html=1;align=center;fontSize=14;fillColor=#FFFFFF;strokeColor=#001DBC;fontColor=#000000;labelBorderColor=default;" parent="1" vertex="1">
                    <mxGeometry x="490" y="420" width="100" height="40" as="geometry"/>
                </mxCell>
                <mxCell id="2MPzYWeAmWjRKUz-pr3W-50" value="&lt;u&gt;flight_id&lt;/u&gt;" style="ellipse;whiteSpace=wrap;html=1;align=center;fontSize=14;fillColor=#FFFFFF;strokeColor=#001DBC;fontColor=#000000;labelBorderColor=default;" parent="1" vertex="1">
                    <mxGeometry x="840" y="420" width="100" height="40" as="geometry"/>
                </mxCell>
                <mxCell id="2MPzYWeAmWjRKUz-pr3W-51" value="&lt;u&gt;pilot_id&lt;/u&gt;" style="ellipse;whiteSpace=wrap;html=1;align=center;fontSize=14;fillColor=#FFFFFF;strokeColor=#001DBC;fontColor=#000000;labelBorderColor=default;" parent="1" vertex="1">
                    <mxGeometry x="380" y="420" width="100" height="40" as="geometry"/>
                </mxCell>
                <mxCell id="2MPzYWeAmWjRKUz-pr3W-52" value="designation" style="ellipse;whiteSpace=wrap;html=1;align=center;fontSize=14;fillColor=#FFFFFF;strokeColor=#909090;fontColor=#000000;labelBorderColor=default;" parent="1" vertex="1">
                    <mxGeometry x="960" y="420" width="100" height="40" as="geometry"/>
                </mxCell>
                <mxCell id="2MPzYWeAmWjRKUz-pr3W-53" value="contactnumber" style="ellipse;whiteSpace=wrap;html=1;align=center;fontSize=14;fillColor=#FFFFFF;strokeColor=#001DBC;fontColor=#000000;labelBorderColor=default;" parent="1" vertex="1">
                    <mxGeometry x="1075" y="420" width="100" height="40" as="geometry"/>
                </mxCell>
                <mxCell id="2MPzYWeAmWjRKUz-pr3W-54" value="poloticense" style="ellipse;whiteSpace=wrap;html=1;align=center;fontSize=14;fillColor=#FFFFFF;strokeColor=#001DBC;fontColor=#000000;labelBorderColor=default;" parent="1" vertex="1">
                    <mxGeometry x="722.5" y="420" width="100" height="40" as="geometry"/>
                </mxCell>
                <mxCell id="2MPzYWeAmWjRKUz-pr3W-55" value="F_name" style="ellipse;whiteSpace=wrap;html=1;align=center;fontSize=14;fillColor=#FFFFFF;strokeColor=#001DBC;fontColor=#000000;labelBorderColor=default;" parent="1" vertex="1">
                    <mxGeometry x="2160" y="530" width="100" height="40" as="geometry"/>
                </mxCell>
                <mxCell id="2MPzYWeAmWjRKUz-pr3W-56" value="&lt;u&gt;crew_id&lt;/u&gt;" style="ellipse;whiteSpace=wrap;html=1;align=center;fontSize=14;fillColor=#FFFFFF;strokeColor=#001DBC;fontColor=#000000;labelBorderColor=default;" parent="1" vertex="1">
                    <mxGeometry x="1970" y="460" width="100" height="40" as="geometry"/>
                </mxCell>
                <mxCell id="2MPzYWeAmWjRKUz-pr3W-57" value="M_name" style="ellipse;whiteSpace=wrap;html=1;align=center;fontSize=14;fillColor=#FFFFFF;strokeColor=#001DBC;fontColor=#000000;labelBorderColor=default;" parent="1" vertex="1">
                    <mxGeometry x="2270" y="530" width="100" height="40" as="geometry"/>
                </mxCell>
                <mxCell id="2MPzYWeAmWjRKUz-pr3W-58" value="contactnumber" style="ellipse;whiteSpace=wrap;html=1;align=center;fontSize=14;fillColor=#FFFFFF;strokeColor=#001DBC;fontColor=#000000;labelBorderColor=default;" parent="1" vertex="1">
                    <mxGeometry x="2430" y="460" width="100" height="40" as="geometry"/>
                </mxCell>
                <mxCell id="2MPzYWeAmWjRKUz-pr3W-59" value="designation" style="ellipse;whiteSpace=wrap;html=1;align=center;fontSize=14;fillColor=#FFFFFF;strokeColor=#001DBC;fontColor=#000000;labelBorderColor=default;" parent="1" vertex="1">
                    <mxGeometry x="2540" y="460" width="100" height="40" as="geometry"/>
                </mxCell>
                <mxCell id="2MPzYWeAmWjRKUz-pr3W-60" value="flight_id" style="ellipse;whiteSpace=wrap;html=1;align=center;fontSize=14;fillColor=#FFFFFF;strokeColor=#001DBC;fontColor=#000000;labelBorderColor=default;" parent="1" vertex="1">
                    <mxGeometry x="2080" y="460" width="100" height="40" as="geometry"/>
                </mxCell>
                <mxCell id="2MPzYWeAmWjRKUz-pr3W-61" value="flight_id" style="ellipse;whiteSpace=wrap;html=1;align=center;fontSize=14;fillColor=#FFFFFF;strokeColor=#001DBC;fontColor=#000000;labelBorderColor=default;" parent="1" vertex="1">
                    <mxGeometry x="2180" y="900" width="100" height="40" as="geometry"/>
                </mxCell>
                <mxCell id="2MPzYWeAmWjRKUz-pr3W-62" value="passenger_id" style="ellipse;whiteSpace=wrap;html=1;align=center;fontSize=14;fillColor=#FFFFFF;strokeColor=#001DBC;fontColor=#000000;labelBorderColor=default;" parent="1" vertex="1">
                    <mxGeometry x="2060" y="900" width="102.5" height="40" as="geometry"/>
                </mxCell>
                <mxCell id="2MPzYWeAmWjRKUz-pr3W-63" value="&lt;u&gt;ticket_id&lt;/u&gt;" style="ellipse;whiteSpace=wrap;html=1;align=center;fontSize=14;fillColor=#FFFFFF;strokeColor=#001DBC;fontColor=#000000;labelBorderColor=default;" parent="1" vertex="1">
                    <mxGeometry x="1940" y="900" width="100" height="40" as="geometry"/>
                </mxCell>
                <mxCell id="2MPzYWeAmWjRKUz-pr3W-64" value="food_preference" style="ellipse;whiteSpace=wrap;html=1;align=center;fontSize=14;fillColor=#FFFFFF;strokeColor=#001DBC;fontColor=#000000;labelBorderColor=default;" parent="1" vertex="1">
                    <mxGeometry x="2860" y="900" width="122.5" height="40" as="geometry"/>
                </mxCell>
                <mxCell id="2MPzYWeAmWjRKUz-pr3W-65" value="origin" style="ellipse;whiteSpace=wrap;html=1;align=center;fontSize=14;fillColor=#FFFFFF;strokeColor=#001DBC;fontColor=#000000;labelBorderColor=default;" parent="1" vertex="1">
                    <mxGeometry x="2297.5" y="900" width="100" height="40" as="geometry"/>
                </mxCell>
                <mxCell id="2MPzYWeAmWjRKUz-pr3W-66" value="destination" style="ellipse;whiteSpace=wrap;html=1;align=center;fontSize=14;fillColor=#FFFFFF;strokeColor=#001DBC;fontColor=#000000;labelBorderColor=default;" parent="1" vertex="1">
                    <mxGeometry x="2410" y="900" width="100" height="40" as="geometry"/>
                </mxCell>
                <mxCell id="2MPzYWeAmWjRKUz-pr3W-67" value="fare" style="ellipse;whiteSpace=wrap;html=1;align=center;fontSize=14;fillColor=#FFFFFF;strokeColor=#001DBC;fontColor=#000000;labelBorderColor=default;" parent="1" vertex="1">
                    <mxGeometry x="2520" y="900" width="100" height="40" as="geometry"/>
                </mxCell>
                <mxCell id="2MPzYWeAmWjRKUz-pr3W-68" value="currency" style="ellipse;whiteSpace=wrap;html=1;align=center;fontSize=14;fillColor=#FFFFFF;strokeColor=#001DBC;fontColor=#000000;labelBorderColor=default;" parent="1" vertex="1">
                    <mxGeometry x="2630" y="900" width="100" height="40" as="geometry"/>
                </mxCell>
                <mxCell id="2MPzYWeAmWjRKUz-pr3W-69" value="invoice_number" style="ellipse;whiteSpace=wrap;html=1;align=center;fontSize=14;fillColor=#FFFFFF;strokeColor=#001DBC;fontColor=#000000;labelBorderColor=default;" parent="1" vertex="1">
                    <mxGeometry x="2740" y="900" width="110" height="40" as="geometry"/>
                </mxCell>
                <mxCell id="2MPzYWeAmWjRKUz-pr3W-70" value="last_name" style="ellipse;whiteSpace=wrap;html=1;align=center;fontSize=14;fillColor=#FFFFFF;strokeColor=#FFFFFF;fontColor=#000000;labelBorderColor=default;strokeWidth=10;" parent="1" vertex="1">
                    <mxGeometry x="1300" y="980" width="100" height="40" as="geometry"/>
                </mxCell>
                <mxCell id="2MPzYWeAmWjRKUz-pr3W-71" value="&lt;u&gt;passenger_id&lt;/u&gt;" style="ellipse;whiteSpace=wrap;html=1;align=center;fontSize=14;fillColor=#FFFFFF;strokeColor=#FFFFFF;fontColor=#000000;labelBorderColor=default;strokeWidth=10;" parent="1" vertex="1">
                    <mxGeometry x="1080" y="980" width="100" height="40" as="geometry"/>
                </mxCell>
                <mxCell id="2MPzYWeAmWjRKUz-pr3W-72" value="maillingaddress" style="ellipse;whiteSpace=wrap;html=1;align=center;fontSize=14;fillColor=#FFFFFF;strokeColor=#FFFFFF;fontColor=#000000;labelBorderColor=default;strokeWidth=10;" parent="1" vertex="1">
                    <mxGeometry x="1530" y="980" width="100" height="40" as="geometry"/>
                </mxCell>
                <mxCell id="2MPzYWeAmWjRKUz-pr3W-73" value="first_name" style="ellipse;whiteSpace=wrap;html=1;align=center;fontSize=14;fillColor=#FFFFFF;strokeColor=#FFFFFF;fontColor=#000000;labelBorderColor=default;strokeWidth=10;" parent="1" vertex="1">
                    <mxGeometry x="1190" y="980" width="100" height="40" as="geometry"/>
                </mxCell>
                <mxCell id="2MPzYWeAmWjRKUz-pr3W-74" value="email_address" style="ellipse;whiteSpace=wrap;html=1;align=center;fontSize=14;fillColor=#FFFFFF;strokeColor=#FFFFFF;fontColor=#000000;labelBorderColor=default;strokeWidth=10;" parent="1" vertex="1">
                    <mxGeometry x="1415" y="980" width="100" height="40" as="geometry"/>
                </mxCell>
                <mxCell id="2MPzYWeAmWjRKUz-pr3W-75" value="contactnumber" style="ellipse;whiteSpace=wrap;html=1;align=center;fontSize=14;fillColor=#FFFFFF;strokeColor=#FFFFFF;fontColor=#000000;labelBorderColor=default;strokeWidth=10;" parent="1" vertex="1">
                    <mxGeometry x="1650" y="980" width="100" height="40" as="geometry"/>
                </mxCell>
                <mxCell id="2MPzYWeAmWjRKUz-pr3W-76" value="frequentflyemumber" style="ellipse;whiteSpace=wrap;html=1;align=center;fontSize=14;fillColor=#FFFFFF;strokeColor=#FFFFFF;fontColor=#000000;labelBorderColor=default;strokeWidth=10;" parent="1" vertex="1">
                    <mxGeometry x="1760" y="980" width="150" height="40" as="geometry"/>
                </mxCell>
                <mxCell id="2MPzYWeAmWjRKUz-pr3W-77" value="departuretime" style="ellipse;whiteSpace=wrap;html=1;align=center;fontSize=14;fillColor=#FFFFFF;strokeColor=#001DBC;fontColor=#000000;labelBorderColor=default;" parent="1" vertex="1">
                    <mxGeometry x="1342.5" y="260" width="100" height="40" as="geometry"/>
                </mxCell>
                <mxCell id="2MPzYWeAmWjRKUz-pr3W-78" value="departuredate" style="ellipse;whiteSpace=wrap;html=1;align=center;fontSize=14;fillColor=#FFFFFF;strokeColor=#001DBC;fontColor=#000000;labelBorderColor=default;" parent="1" vertex="1">
                    <mxGeometry x="1232.5" y="260" width="100" height="40" as="geometry"/>
                </mxCell>
                <mxCell id="2MPzYWeAmWjRKUz-pr3W-79" value="&lt;u&gt;flight_id&lt;/u&gt;" style="ellipse;whiteSpace=wrap;html=1;align=center;fontSize=14;fillColor=#FFFFFF;strokeColor=#001DBC;fontColor=#000000;labelBorderColor=default;" parent="1" vertex="1">
                    <mxGeometry x="1012.5" y="260" width="100" height="40" as="geometry"/>
                </mxCell>
                <mxCell id="2MPzYWeAmWjRKUz-pr3W-80" value="airplane_id" style="ellipse;whiteSpace=wrap;html=1;align=center;fontSize=14;fillColor=#FFFFFF;strokeColor=#001DBC;fontColor=#000000;labelBorderColor=default;" parent="1" vertex="1">
                    <mxGeometry x="1122.5" y="260" width="100" height="40" as="geometry"/>
                </mxCell>
                <mxCell id="2MPzYWeAmWjRKUz-pr3W-81" style="edgeStyle=orthogonalEdgeStyle;rounded=0;orthogonalLoop=1;jettySize=auto;html=1;endArrow=none;endFill=0;labelBackgroundColor=#EEEEEE;strokeColor=#FFFFFF;fontColor=default;labelBorderColor=default;" parent="1" target="2MPzYWeAmWjRKUz-pr3W-64" edge="1">
                    <mxGeometry relative="1" as="geometry">
                        <Array as="points">
                            <mxPoint x="2459" y="860"/>
                            <mxPoint x="2916" y="860"/>
                        </Array>
                        <mxPoint x="2458.750000000001" y="810" as="sourcePoint"/>
                        <mxPoint x="2915.75" y="880.3714629457822" as="targetPoint"/>
                    </mxGeometry>
                </mxCell>
                <mxCell id="2MPzYWeAmWjRKUz-pr3W-82" style="edgeStyle=orthogonalEdgeStyle;rounded=0;orthogonalLoop=1;jettySize=auto;html=1;endArrow=none;endFill=0;labelBackgroundColor=#EEEEEE;strokeColor=#FFFFFF;fontColor=default;labelBorderColor=default;" parent="1" target="2MPzYWeAmWjRKUz-pr3W-69" edge="1">
                    <mxGeometry relative="1" as="geometry">
                        <Array as="points">
                            <mxPoint x="2459" y="860"/>
                            <mxPoint x="2794" y="860"/>
                        </Array>
                        <mxPoint x="2458.750000000001" y="810" as="sourcePoint"/>
                        <mxPoint x="2793.750000000001" y="880" as="targetPoint"/>
                    </mxGeometry>
                </mxCell>
                <mxCell id="2MPzYWeAmWjRKUz-pr3W-83" style="edgeStyle=orthogonalEdgeStyle;rounded=0;orthogonalLoop=1;jettySize=auto;html=1;endArrow=none;endFill=0;labelBackgroundColor=#EEEEEE;strokeColor=#FFFFFF;fontColor=default;labelBorderColor=default;" parent="1" target="2MPzYWeAmWjRKUz-pr3W-68" edge="1">
                    <mxGeometry relative="1" as="geometry">
                        <Array as="points">
                            <mxPoint x="2459" y="860"/>
                            <mxPoint x="2679" y="860"/>
                        </Array>
                        <mxPoint x="2458.750000000001" y="810" as="sourcePoint"/>
                        <mxPoint x="2678.75" y="880" as="targetPoint"/>
                    </mxGeometry>
                </mxCell>
                <mxCell id="2MPzYWeAmWjRKUz-pr3W-84" style="edgeStyle=orthogonalEdgeStyle;rounded=0;orthogonalLoop=1;jettySize=auto;html=1;endArrow=none;endFill=0;labelBackgroundColor=#EEEEEE;strokeColor=#FFFFFF;fontColor=default;labelBorderColor=default;" parent="1" target="2MPzYWeAmWjRKUz-pr3W-67" edge="1">
                    <mxGeometry relative="1" as="geometry">
                        <Array as="points">
                            <mxPoint x="2459" y="860"/>
                            <mxPoint x="2570" y="860"/>
                        </Array>
                        <mxPoint x="2458.750000000001" y="810" as="sourcePoint"/>
                        <mxPoint x="2568.750000000001" y="880" as="targetPoint"/>
                    </mxGeometry>
                </mxCell>
                <mxCell id="2MPzYWeAmWjRKUz-pr3W-85" style="edgeStyle=orthogonalEdgeStyle;rounded=0;orthogonalLoop=1;jettySize=auto;html=1;endArrow=none;endFill=0;entryX=0.5;entryY=0;entryDx=0;entryDy=0;labelBackgroundColor=#EEEEEE;strokeColor=#FFFFFF;fontColor=default;labelBorderColor=default;" parent="1" target="2MPzYWeAmWjRKUz-pr3W-66" edge="1">
                    <mxGeometry relative="1" as="geometry">
                        <mxPoint x="2458.75" y="810" as="sourcePoint"/>
                        <mxPoint x="2458.75" y="880" as="targetPoint"/>
                    </mxGeometry>
                </mxCell>
                <mxCell id="2MPzYWeAmWjRKUz-pr3W-86" style="edgeStyle=orthogonalEdgeStyle;rounded=0;orthogonalLoop=1;jettySize=auto;html=1;endArrow=none;endFill=0;entryX=0.5;entryY=0;entryDx=0;entryDy=0;labelBackgroundColor=#EEEEEE;strokeColor=#FFFFFF;fontColor=default;labelBorderColor=default;" parent="1" target="2MPzYWeAmWjRKUz-pr3W-65" edge="1">
                    <mxGeometry relative="1" as="geometry">
                        <Array as="points">
                            <mxPoint x="2459" y="860"/>
                            <mxPoint x="2342" y="860"/>
                        </Array>
                        <mxPoint x="2458.750000000001" y="810" as="sourcePoint"/>
                        <mxPoint x="2341.25" y="880" as="targetPoint"/>
                    </mxGeometry>
                </mxCell>
                <mxCell id="2MPzYWeAmWjRKUz-pr3W-87" style="edgeStyle=orthogonalEdgeStyle;rounded=0;orthogonalLoop=1;jettySize=auto;html=1;endArrow=none;endFill=0;labelBackgroundColor=#EEEEEE;strokeColor=#FFFFFF;fontColor=default;labelBorderColor=default;" parent="1" target="2MPzYWeAmWjRKUz-pr3W-61" edge="1">
                    <mxGeometry relative="1" as="geometry">
                        <Array as="points">
                            <mxPoint x="2459" y="860"/>
                            <mxPoint x="2232" y="860"/>
                        </Array>
                        <mxPoint x="2458.750000000001" y="810" as="sourcePoint"/>
                        <mxPoint x="2231.25" y="880" as="targetPoint"/>
                    </mxGeometry>
                </mxCell>
                <mxCell id="2MPzYWeAmWjRKUz-pr3W-88" style="edgeStyle=orthogonalEdgeStyle;rounded=0;orthogonalLoop=1;jettySize=auto;html=1;endArrow=none;endFill=0;labelBackgroundColor=#EEEEEE;strokeColor=#FFFFFF;fontColor=default;labelBorderColor=default;" parent="1" target="2MPzYWeAmWjRKUz-pr3W-62" edge="1">
                    <mxGeometry relative="1" as="geometry">
                        <Array as="points">
                            <mxPoint x="2459" y="860"/>
                            <mxPoint x="2111" y="860"/>
                        </Array>
                        <mxPoint x="2458.750000000001" y="810" as="sourcePoint"/>
                        <mxPoint x="2070" y="880" as="targetPoint"/>
                    </mxGeometry>
                </mxCell>
                <mxCell id="2MPzYWeAmWjRKUz-pr3W-89" style="edgeStyle=none;rounded=0;orthogonalLoop=1;jettySize=auto;html=1;startArrow=none;startFill=0;endArrow=none;endFill=0;labelBackgroundColor=#EEEEEE;strokeColor=#182E3E;fontColor=default;exitX=0.5;exitY=0;exitDx=0;exitDy=0;labelBorderColor=default;" parent="1" source="EPYa3nC2cuuESbHwCl80-3" edge="1">
                    <mxGeometry relative="1" as="geometry">
                        <mxPoint x="2310" y="430" as="targetPoint"/>
                    </mxGeometry>
                </mxCell>
                <mxCell id="2MPzYWeAmWjRKUz-pr3W-90" style="edgeStyle=none;rounded=0;orthogonalLoop=1;jettySize=auto;html=1;startArrow=none;startFill=0;endArrow=none;endFill=0;labelBackgroundColor=#EEEEEE;strokeColor=#FFFFFF;fontColor=default;exitX=1;exitY=1;exitDx=0;exitDy=0;labelBorderColor=default;" parent="1" source="EPYa3nC2cuuESbHwCl80-3" target="2MPzYWeAmWjRKUz-pr3W-94" edge="1">
                    <mxGeometry relative="1" as="geometry"/>
                </mxCell>
                <mxCell id="2MPzYWeAmWjRKUz-pr3W-91" style="edgeStyle=none;rounded=0;orthogonalLoop=1;jettySize=auto;html=1;startArrow=none;startFill=0;endArrow=none;endFill=0;labelBackgroundColor=#EEEEEE;strokeColor=#FFFFFF;fontColor=default;exitX=0.5;exitY=1;exitDx=0;exitDy=0;labelBorderColor=default;" parent="1" source="EPYa3nC2cuuESbHwCl80-3" target="2MPzYWeAmWjRKUz-pr3W-57" edge="1">
                    <mxGeometry relative="1" as="geometry"/>
                </mxCell>
                <mxCell id="2MPzYWeAmWjRKUz-pr3W-92" style="edgeStyle=none;rounded=0;orthogonalLoop=1;jettySize=auto;html=1;startArrow=none;startFill=0;endArrow=none;endFill=0;labelBackgroundColor=#EEEEEE;strokeColor=#FFFFFF;fontColor=default;exitX=0;exitY=1;exitDx=0;exitDy=0;labelBorderColor=default;" parent="1" source="EPYa3nC2cuuESbHwCl80-3" target="2MPzYWeAmWjRKUz-pr3W-55" edge="1">
                    <mxGeometry relative="1" as="geometry">
                        <mxPoint x="2280" y="510" as="sourcePoint"/>
                    </mxGeometry>
                </mxCell>
                <mxCell id="2MPzYWeAmWjRKUz-pr3W-94" value="L_name" style="ellipse;whiteSpace=wrap;html=1;align=center;fontSize=14;fillColor=#FFFFFF;strokeColor=#001DBC;fontColor=#000000;labelBorderColor=default;" parent="1" vertex="1">
                    <mxGeometry x="2380" y="530" width="100" height="40" as="geometry"/>
                </mxCell>
                <mxCell id="2MPzYWeAmWjRKUz-pr3W-95" value="to" style="ellipse;whiteSpace=wrap;html=1;align=center;fontSize=14;fillColor=#FFFFFF;strokeColor=#001DBC;fontColor=#000000;labelBorderColor=default;" parent="1" vertex="1">
                    <mxGeometry x="1802.5" y="260" width="100" height="40" as="geometry"/>
                </mxCell>
                <mxCell id="2MPzYWeAmWjRKUz-pr3W-96" value="from" style="ellipse;whiteSpace=wrap;html=1;align=center;fontSize=14;fillColor=#FFFFFF;strokeColor=#001DBC;fontColor=#000000;labelBorderColor=default;" parent="1" vertex="1">
                    <mxGeometry x="1692.5" y="260" width="100" height="40" as="geometry"/>
                </mxCell>
                <mxCell id="2MPzYWeAmWjRKUz-pr3W-97" value="arrival_time" style="ellipse;whiteSpace=wrap;html=1;align=center;fontSize=14;fillColor=#FFFFFF;strokeColor=#001DBC;fontColor=#000000;labelBorderColor=default;" parent="1" vertex="1">
                    <mxGeometry x="1572.5" y="260" width="100" height="40" as="geometry"/>
                </mxCell>
                <mxCell id="2MPzYWeAmWjRKUz-pr3W-98" value="arrival_date" style="ellipse;whiteSpace=wrap;html=1;align=center;fontSize=14;fillColor=#FFFFFF;strokeColor=#001DBC;fontColor=#000000;labelBorderColor=default;" parent="1" vertex="1">
                    <mxGeometry x="1462.5" y="260" width="100" height="40" as="geometry"/>
                </mxCell>
                <mxCell id="2MPzYWeAmWjRKUz-pr3W-99" value="" style="shape=link;html=1;rounded=0;sketch=0;fontColor=default;strokeColor=#FFFFFF;curved=0;width=-4.166666666666666;exitX=1;exitY=0.5;exitDx=0;exitDy=0;entryX=0;entryY=0.5;entryDx=0;entryDy=0;labelBackgroundColor=#EEEEEE;labelBorderColor=default;" parent="1" source="2MPzYWeAmWjRKUz-pr3W-24" target="2MPzYWeAmWjRKUz-pr3W-39" edge="1">
                    <mxGeometry relative="1" as="geometry">
                        <mxPoint x="910" y="339.58" as="sourcePoint"/>
                        <mxPoint x="1070" y="339.58" as="targetPoint"/>
                    </mxGeometry>
                </mxCell>
                <mxCell id="2MPzYWeAmWjRKUz-pr3W-100" value="1" style="resizable=0;html=1;align=right;verticalAlign=bottom;rounded=0;sketch=0;fontColor=default;strokeColor=#909090;fillColor=#F5AB50;labelBorderColor=default;" parent="2MPzYWeAmWjRKUz-pr3W-99" connectable="0" vertex="1">
                    <mxGeometry x="1" relative="1" as="geometry"/>
                </mxCell>
                <mxCell id="2MPzYWeAmWjRKUz-pr3W-101" value="" style="shape=link;html=1;rounded=0;sketch=0;fontColor=default;strokeColor=#FFFFFF;curved=0;width=-4.166666666666666;exitX=0;exitY=0;exitDx=0;exitDy=0;entryX=1;entryY=0.5;entryDx=0;entryDy=0;labelBackgroundColor=#EEEEEE;labelBorderColor=default;" parent="1" source="2MPzYWeAmWjRKUz-pr3W-9" target="2MPzYWeAmWjRKUz-pr3W-39" edge="1">
                    <mxGeometry relative="1" as="geometry">
                        <mxPoint x="920" y="400" as="sourcePoint"/>
                        <mxPoint x="1270" y="400" as="targetPoint"/>
                    </mxGeometry>
                </mxCell>
                <mxCell id="2MPzYWeAmWjRKUz-pr3W-102" value="1" style="resizable=0;html=1;align=right;verticalAlign=bottom;rounded=0;sketch=0;fontColor=default;strokeColor=#909090;fillColor=#F5AB50;labelBorderColor=default;" parent="2MPzYWeAmWjRKUz-pr3W-101" connectable="0" vertex="1">
                    <mxGeometry x="1" relative="1" as="geometry"/>
                </mxCell>
                <mxCell id="2MPzYWeAmWjRKUz-pr3W-103" value="" style="shape=link;html=1;rounded=0;sketch=0;fontColor=default;strokeColor=#FFFFFF;curved=0;width=-4.166666666666666;exitX=1;exitY=0;exitDx=0;exitDy=0;entryX=0;entryY=0.5;entryDx=0;entryDy=0;labelBackgroundColor=#EEEEEE;labelBorderColor=default;" parent="1" source="2MPzYWeAmWjRKUz-pr3W-9" target="2MPzYWeAmWjRKUz-pr3W-43" edge="1">
                    <mxGeometry relative="1" as="geometry">
                        <mxPoint x="1602.5" y="570" as="sourcePoint"/>
                        <mxPoint x="1462.5" y="345" as="targetPoint"/>
                    </mxGeometry>
                </mxCell>
                <mxCell id="2MPzYWeAmWjRKUz-pr3W-104" value="1" style="resizable=0;html=1;align=right;verticalAlign=bottom;rounded=0;sketch=0;fontColor=default;strokeColor=#909090;fillColor=#F5AB50;labelBorderColor=default;" parent="2MPzYWeAmWjRKUz-pr3W-103" connectable="0" vertex="1">
                    <mxGeometry x="1" relative="1" as="geometry"/>
                </mxCell>
                <mxCell id="2MPzYWeAmWjRKUz-pr3W-105" value="" style="shape=link;html=1;rounded=0;sketch=0;fontColor=default;strokeColor=#FFFFFF;curved=0;entryX=1;entryY=0.5;entryDx=0;entryDy=0;exitX=0;exitY=0.5;exitDx=0;exitDy=0;labelBackgroundColor=#EEEEEE;labelBorderColor=default;" parent="1" source="2MPzYWeAmWjRKUz-pr3W-16" target="2MPzYWeAmWjRKUz-pr3W-43" edge="1">
                    <mxGeometry relative="1" as="geometry">
                        <mxPoint x="1920" y="470" as="sourcePoint"/>
                        <mxPoint x="2080" y="470" as="targetPoint"/>
                    </mxGeometry>
                </mxCell>
                <mxCell id="2MPzYWeAmWjRKUz-pr3W-106" value="N" style="resizable=0;html=1;align=right;verticalAlign=bottom;rounded=0;sketch=0;fontColor=default;strokeColor=#909090;fillColor=#F5AB50;labelBorderColor=default;" parent="2MPzYWeAmWjRKUz-pr3W-105" connectable="0" vertex="1">
                    <mxGeometry x="1" relative="1" as="geometry"/>
                </mxCell>
                <mxCell id="2MPzYWeAmWjRKUz-pr3W-107" value="has" style="shape=rhombus;perimeter=rhombusPerimeter;whiteSpace=wrap;html=1;align=center;fontSize=14;fillColor=#FFFFFF;strokeColor=#001DBC;fontColor=#000000;labelBorderColor=default;" parent="1" vertex="1">
                    <mxGeometry x="1397.5" y="720" width="120" height="60" as="geometry"/>
                </mxCell>
                <mxCell id="2MPzYWeAmWjRKUz-pr3W-108" value="" style="shape=link;html=1;rounded=0;sketch=0;fontColor=default;strokeColor=#FFFFFF;curved=0;width=-4.166666666666666;exitX=0.5;exitY=1;exitDx=0;exitDy=0;entryX=0.5;entryY=0;entryDx=0;entryDy=0;labelBackgroundColor=#EEEEEE;labelBorderColor=default;" parent="1" source="2MPzYWeAmWjRKUz-pr3W-9" target="2MPzYWeAmWjRKUz-pr3W-107" edge="1">
                    <mxGeometry relative="1" as="geometry">
                        <mxPoint x="1505" y="575" as="sourcePoint"/>
                        <mxPoint x="1612.5" y="480" as="targetPoint"/>
                    </mxGeometry>
                </mxCell>
                <mxCell id="2MPzYWeAmWjRKUz-pr3W-109" value="1" style="resizable=0;html=1;align=right;verticalAlign=bottom;rounded=0;sketch=0;fontColor=default;strokeColor=#909090;fillColor=#F5AB50;labelBorderColor=default;" parent="2MPzYWeAmWjRKUz-pr3W-108" connectable="0" vertex="1">
                    <mxGeometry x="1" relative="1" as="geometry">
                        <mxPoint x="-7" as="offset"/>
                    </mxGeometry>
                </mxCell>
                <mxCell id="2MPzYWeAmWjRKUz-pr3W-110" value="" style="shape=link;html=1;rounded=0;sketch=0;fontColor=default;strokeColor=#FFFFFF;curved=0;entryX=0.5;entryY=1;entryDx=0;entryDy=0;exitX=0.5;exitY=0;exitDx=0;exitDy=0;labelBackgroundColor=#EEEEEE;labelBorderColor=default;" parent="1" source="2MPzYWeAmWjRKUz-pr3W-33" target="2MPzYWeAmWjRKUz-pr3W-107" edge="1">
                    <mxGeometry relative="1" as="geometry">
                        <mxPoint x="1680" y="760" as="sourcePoint"/>
                        <mxPoint x="1732.5" y="480" as="targetPoint"/>
                    </mxGeometry>
                </mxCell>
                <mxCell id="2MPzYWeAmWjRKUz-pr3W-111" value="N" style="resizable=0;html=1;align=right;verticalAlign=bottom;rounded=0;sketch=0;fontColor=default;strokeColor=#909090;fillColor=#F5AB50;labelBorderColor=default;" parent="2MPzYWeAmWjRKUz-pr3W-110" connectable="0" vertex="1">
                    <mxGeometry x="1" relative="1" as="geometry">
                        <mxPoint x="-7" y="10" as="offset"/>
                    </mxGeometry>
                </mxCell>
                <mxCell id="2MPzYWeAmWjRKUz-pr3W-112" value="" style="shape=link;html=1;rounded=0;sketch=0;fontColor=default;strokeColor=#FFFFFF;curved=0;entryX=1;entryY=0.5;entryDx=0;entryDy=0;exitX=0;exitY=1;exitDx=0;exitDy=0;labelBackgroundColor=#EEEEEE;labelBorderColor=default;" parent="1" source="2MPzYWeAmWjRKUz-pr3W-9" target="2MPzYWeAmWjRKUz-pr3W-40" edge="1">
                    <mxGeometry relative="1" as="geometry">
                        <mxPoint x="1820" y="540" as="sourcePoint"/>
                        <mxPoint x="1272.5" y="705" as="targetPoint"/>
                    </mxGeometry>
                </mxCell>
                <mxCell id="2MPzYWeAmWjRKUz-pr3W-113" value="N" style="resizable=0;html=1;align=right;verticalAlign=bottom;rounded=0;sketch=0;fontColor=default;strokeColor=#909090;fillColor=#F5AB50;labelBorderColor=default;" parent="2MPzYWeAmWjRKUz-pr3W-112" connectable="0" vertex="1">
                    <mxGeometry x="1" relative="1" as="geometry"/>
                </mxCell>
                <mxCell id="2MPzYWeAmWjRKUz-pr3W-114" value="" style="shape=link;html=1;rounded=0;sketch=0;fontColor=default;strokeColor=#FFFFFF;curved=0;width=-4.166666666666666;exitX=0;exitY=1;exitDx=0;exitDy=0;entryX=0.5;entryY=0;entryDx=0;entryDy=0;labelBackgroundColor=#EEEEEE;labelBorderColor=default;" parent="1" source="2MPzYWeAmWjRKUz-pr3W-25" target="2MPzYWeAmWjRKUz-pr3W-41" edge="1">
                    <mxGeometry relative="1" as="geometry">
                        <mxPoint x="1635" y="747.5" as="sourcePoint"/>
                        <mxPoint x="1742.5" y="652.5" as="targetPoint"/>
                    </mxGeometry>
                </mxCell>
                <mxCell id="2MPzYWeAmWjRKUz-pr3W-115" value="1" style="resizable=0;html=1;align=right;verticalAlign=bottom;rounded=0;sketch=0;fontColor=default;strokeColor=#909090;fillColor=#F5AB50;labelBorderColor=default;" parent="2MPzYWeAmWjRKUz-pr3W-114" connectable="0" vertex="1">
                    <mxGeometry x="1" relative="1" as="geometry"/>
                </mxCell>
                <mxCell id="2MPzYWeAmWjRKUz-pr3W-116" value="" style="shape=link;html=1;rounded=0;sketch=0;fontColor=default;strokeColor=#FFFFFF;curved=0;width=-4.166666666666666;exitX=1;exitY=0;exitDx=0;exitDy=0;entryX=0.5;entryY=1;entryDx=0;entryDy=0;labelBackgroundColor=#EEEEEE;labelBorderColor=default;" parent="1" source="2MPzYWeAmWjRKUz-pr3W-33" target="2MPzYWeAmWjRKUz-pr3W-41" edge="1">
                    <mxGeometry relative="1" as="geometry">
                        <mxPoint x="1465" y="842.5" as="sourcePoint"/>
                        <mxPoint x="1572.5" y="747.5" as="targetPoint"/>
                    </mxGeometry>
                </mxCell>
                <mxCell id="2MPzYWeAmWjRKUz-pr3W-117" value="1" style="resizable=0;html=1;align=right;verticalAlign=bottom;rounded=0;sketch=0;fontColor=default;strokeColor=#909090;fillColor=#F5AB50;labelBorderColor=default;" parent="2MPzYWeAmWjRKUz-pr3W-116" connectable="0" vertex="1">
                    <mxGeometry x="1" relative="1" as="geometry">
                        <mxPoint x="-10" y="7" as="offset"/>
                    </mxGeometry>
                </mxCell>
                <mxCell id="2MPzYWeAmWjRKUz-pr3W-118" value="" style="shape=link;html=1;rounded=0;sketch=0;fontColor=default;strokeColor=#FFFFFF;curved=0;entryX=0;entryY=0.5;entryDx=0;entryDy=0;exitX=1;exitY=0.5;exitDx=0;exitDy=0;labelBackgroundColor=#EEEEEE;labelBorderColor=default;" parent="1" source="2MPzYWeAmWjRKUz-pr3W-38" target="2MPzYWeAmWjRKUz-pr3W-40" edge="1">
                    <mxGeometry relative="1" as="geometry">
                        <mxPoint x="1830" y="550" as="sourcePoint"/>
                        <mxPoint x="1282.5" y="715" as="targetPoint"/>
                    </mxGeometry>
                </mxCell>
                <mxCell id="2MPzYWeAmWjRKUz-pr3W-119" value="N" style="resizable=0;html=1;align=right;verticalAlign=bottom;rounded=0;sketch=0;fontColor=default;strokeColor=#909090;fillColor=#F5AB50;labelBorderColor=default;" parent="2MPzYWeAmWjRKUz-pr3W-118" connectable="0" vertex="1">
                    <mxGeometry x="1" relative="1" as="geometry"/>
                </mxCell>
                <mxCell id="2MPzYWeAmWjRKUz-pr3W-120" value="has" style="shape=rhombus;perimeter=rhombusPerimeter;whiteSpace=wrap;html=1;align=center;fontSize=14;fillColor=#FFFFFF;strokeColor=#001DBC;fontColor=#000000;labelBorderColor=default;" parent="1" vertex="1">
                    <mxGeometry x="1539" y="550" width="120" height="60" as="geometry"/>
                </mxCell>
                <mxCell id="2MPzYWeAmWjRKUz-pr3W-121" value="" style="shape=link;html=1;rounded=0;sketch=0;fontColor=default;strokeColor=#FFFFFF;curved=0;entryX=1;entryY=0.5;entryDx=0;entryDy=0;exitX=0;exitY=0.5;exitDx=0;exitDy=0;labelBackgroundColor=#EEEEEE;labelBorderColor=default;" parent="1" source="2MPzYWeAmWjRKUz-pr3W-25" target="2MPzYWeAmWjRKUz-pr3W-120" edge="1">
                    <mxGeometry relative="1" as="geometry">
                        <mxPoint x="1530" y="630" as="sourcePoint"/>
                        <mxPoint x="1540" y="580" as="targetPoint"/>
                    </mxGeometry>
                </mxCell>
                <mxCell id="2MPzYWeAmWjRKUz-pr3W-122" value="N" style="resizable=0;html=1;align=right;verticalAlign=bottom;rounded=0;sketch=0;fontColor=default;strokeColor=#909090;fillColor=#F5AB50;labelBorderColor=default;" parent="2MPzYWeAmWjRKUz-pr3W-121" connectable="0" vertex="1">
                    <mxGeometry x="1" relative="1" as="geometry"/>
                </mxCell>
                <mxCell id="2MPzYWeAmWjRKUz-pr3W-123" value="" style="shape=link;html=1;rounded=0;sketch=0;fontColor=default;strokeColor=#FFFFFF;curved=0;width=-4.166666666666666;exitX=1;exitY=0.5;exitDx=0;exitDy=0;entryX=0;entryY=0.5;entryDx=0;entryDy=0;labelBackgroundColor=#EEEEEE;labelBorderColor=default;" parent="1" source="2MPzYWeAmWjRKUz-pr3W-9" target="2MPzYWeAmWjRKUz-pr3W-120" edge="1">
                    <mxGeometry relative="1" as="geometry">
                        <mxPoint x="1505" y="575" as="sourcePoint"/>
                        <mxPoint x="1612.5" y="480" as="targetPoint"/>
                    </mxGeometry>
                </mxCell>
                <mxCell id="2MPzYWeAmWjRKUz-pr3W-124" value="1" style="resizable=0;html=1;align=right;verticalAlign=bottom;rounded=0;sketch=0;fontColor=default;strokeColor=#909090;fillColor=#F5AB50;labelBorderColor=default;" parent="2MPzYWeAmWjRKUz-pr3W-123" connectable="0" vertex="1">
                    <mxGeometry x="1" relative="1" as="geometry"/>
                </mxCell>
                <mxCell id="2MPzYWeAmWjRKUz-pr3W-125" value="" style="shape=link;html=1;rounded=0;sketch=0;fontColor=default;strokeColor=#FFFFFF;curved=0;width=-4.166666666666666;exitX=0.5;exitY=0;exitDx=0;exitDy=0;entryX=0.5;entryY=1;entryDx=0;entryDy=0;labelBackgroundColor=#EEEEEE;labelBorderColor=default;" parent="1" source="2MPzYWeAmWjRKUz-pr3W-11" target="2MPzYWeAmWjRKUz-pr3W-42" edge="1">
                    <mxGeometry relative="1" as="geometry">
                        <mxPoint x="1505" y="575" as="sourcePoint"/>
                        <mxPoint x="2163" y="690" as="targetPoint"/>
                        <Array as="points">
                            <mxPoint x="2450" y="760"/>
                            <mxPoint x="2110" y="740"/>
                        </Array>
                    </mxGeometry>
                </mxCell>
                <mxCell id="2MPzYWeAmWjRKUz-pr3W-126" value="1" style="resizable=0;html=1;align=right;verticalAlign=bottom;rounded=0;sketch=0;fontColor=default;strokeColor=#909090;fillColor=#F5AB50;labelBorderColor=default;" parent="2MPzYWeAmWjRKUz-pr3W-125" connectable="0" vertex="1">
                    <mxGeometry x="1" relative="1" as="geometry">
                        <mxPoint y="13" as="offset"/>
                    </mxGeometry>
                </mxCell>
                <mxCell id="2MPzYWeAmWjRKUz-pr3W-127" value="" style="endArrow=none;html=1;rounded=0;sketch=0;fontColor=default;strokeColor=#FFFFFF;curved=0;entryX=0.5;entryY=0;entryDx=0;entryDy=0;exitX=1;exitY=0.5;exitDx=0;exitDy=0;labelBackgroundColor=#EEEEEE;labelBorderColor=default;" parent="1" source="2MPzYWeAmWjRKUz-pr3W-25" target="2MPzYWeAmWjRKUz-pr3W-42" edge="1">
                    <mxGeometry relative="1" as="geometry">
                        <mxPoint x="2000" y="690" as="sourcePoint"/>
                        <mxPoint x="2160" y="690" as="targetPoint"/>
                    </mxGeometry>
                </mxCell>
                <mxCell id="2MPzYWeAmWjRKUz-pr3W-128" value="1" style="resizable=0;html=1;align=right;verticalAlign=bottom;rounded=0;sketch=0;fontColor=default;strokeColor=#909090;fillColor=#F5AB50;labelBorderColor=default;" parent="2MPzYWeAmWjRKUz-pr3W-127" connectable="0" vertex="1">
                    <mxGeometry x="1" relative="1" as="geometry"/>
                </mxCell>
                <mxCell id="2MPzYWeAmWjRKUz-pr3W-129" value="has" style="shape=rhombus;perimeter=rhombusPerimeter;whiteSpace=wrap;html=1;align=center;fontSize=14;fillColor=#FFFFFF;strokeColor=#001DBC;fontColor=#000000;labelBorderColor=default;" parent="1" vertex="1">
                    <mxGeometry x="1782.5" y="765" width="120" height="60" as="geometry"/>
                </mxCell>
                <mxCell id="2MPzYWeAmWjRKUz-pr3W-130" value="" style="shape=link;html=1;rounded=0;sketch=0;fontColor=default;strokeColor=#FFFFFF;curved=0;width=-4.166666666666666;exitX=1;exitY=0.5;exitDx=0;exitDy=0;entryX=0;entryY=0.5;entryDx=0;entryDy=0;labelBackgroundColor=#EEEEEE;labelBorderColor=default;" parent="1" source="2MPzYWeAmWjRKUz-pr3W-33" target="2MPzYWeAmWjRKUz-pr3W-129" edge="1">
                    <mxGeometry relative="1" as="geometry">
                        <mxPoint x="1750" y="742" as="sourcePoint"/>
                        <mxPoint x="1662.5" y="825" as="targetPoint"/>
                    </mxGeometry>
                </mxCell>
                <mxCell id="2MPzYWeAmWjRKUz-pr3W-131" value="1" style="resizable=0;html=1;align=right;verticalAlign=bottom;rounded=0;sketch=0;fontColor=default;strokeColor=#909090;fillColor=#F5AB50;labelBorderColor=default;" parent="2MPzYWeAmWjRKUz-pr3W-130" connectable="0" vertex="1">
                    <mxGeometry x="1" relative="1" as="geometry"/>
                </mxCell>
                <mxCell id="2MPzYWeAmWjRKUz-pr3W-132" value="" style="shape=link;html=1;rounded=0;sketch=0;fontColor=default;strokeColor=#FFFFFF;curved=0;width=-4.166666666666666;exitX=0;exitY=0.5;exitDx=0;exitDy=0;entryX=1;entryY=0.5;entryDx=0;entryDy=0;labelBackgroundColor=#EEEEEE;labelBorderColor=default;" parent="1" source="2MPzYWeAmWjRKUz-pr3W-11" target="2MPzYWeAmWjRKUz-pr3W-129" edge="1">
                    <mxGeometry relative="1" as="geometry">
                        <mxPoint x="1990" y="714" as="sourcePoint"/>
                        <mxPoint x="1930" y="797" as="targetPoint"/>
                    </mxGeometry>
                </mxCell>
                <mxCell id="2MPzYWeAmWjRKUz-pr3W-133" value="1" style="resizable=0;html=1;align=right;verticalAlign=bottom;rounded=0;sketch=0;fontColor=default;strokeColor=#909090;fillColor=#F5AB50;labelBorderColor=default;" parent="2MPzYWeAmWjRKUz-pr3W-132" connectable="0" vertex="1">
                    <mxGeometry x="1" relative="1" as="geometry"/>
                </mxCell>
                <mxCell id="2MPzYWeAmWjRKUz-pr3W-136" value="dependents_of" style="shape=rhombus;double=1;perimeter=rhombusPerimeter;whiteSpace=wrap;html=1;align=center;fillColor=#FFFFFF;strokeColor=#001DBC;fontColor=#000000;labelBorderColor=default;" parent="1" vertex="1">
                    <mxGeometry x="2397.5" y="180" width="122.5" height="100" as="geometry"/>
                </mxCell>
                <mxCell id="2MPzYWeAmWjRKUz-pr3W-137" value="dependent" style="shape=ext;margin=3;double=1;whiteSpace=wrap;html=1;align=center;fillColor=#FFFFFF;strokeColor=#909090;fontColor=#000000;labelBorderColor=default;" parent="1" vertex="1">
                    <mxGeometry x="2580" y="210" width="100" height="40" as="geometry"/>
                </mxCell>
                <mxCell id="2MPzYWeAmWjRKUz-pr3W-140" value="Birth_date" style="ellipse;whiteSpace=wrap;html=1;align=center;fillColor=#FFFFFF;strokeColor=#001DBC;fontColor=#000000;labelBorderColor=default;" parent="1" vertex="1">
                    <mxGeometry x="2580" y="285" width="100" height="40" as="geometry"/>
                </mxCell>
                <mxCell id="2MPzYWeAmWjRKUz-pr3W-142" value="relationship" style="ellipse;whiteSpace=wrap;html=1;align=center;fillColor=#FFFFFF;strokeColor=#001DBC;fontColor=#000000;labelBorderColor=default;" parent="1" vertex="1">
                    <mxGeometry x="2710" y="210" width="100" height="40" as="geometry"/>
                </mxCell>
                <mxCell id="2MPzYWeAmWjRKUz-pr3W-143" value="" style="endArrow=none;html=1;rounded=0;entryX=0;entryY=0.5;entryDx=0;entryDy=0;exitX=1;exitY=0.5;exitDx=0;exitDy=0;labelBackgroundColor=#EEEEEE;strokeColor=#FFFFFF;fontColor=default;labelBorderColor=default;" parent="1" source="2MPzYWeAmWjRKUz-pr3W-137" target="2MPzYWeAmWjRKUz-pr3W-142" edge="1">
                    <mxGeometry relative="1" as="geometry">
                        <mxPoint x="2700" y="280" as="sourcePoint"/>
                        <mxPoint x="2570" y="270" as="targetPoint"/>
                    </mxGeometry>
                </mxCell>
                <mxCell id="2MPzYWeAmWjRKUz-pr3W-144" value="" style="endArrow=none;html=1;rounded=0;entryX=0.5;entryY=0;entryDx=0;entryDy=0;exitX=0.5;exitY=1;exitDx=0;exitDy=0;labelBackgroundColor=#EEEEEE;strokeColor=#FFFFFF;fontColor=default;labelBorderColor=default;" parent="1" source="2MPzYWeAmWjRKUz-pr3W-137" target="2MPzYWeAmWjRKUz-pr3W-140" edge="1">
                    <mxGeometry relative="1" as="geometry">
                        <mxPoint x="2690" y="240" as="sourcePoint"/>
                        <mxPoint x="2719.9999999999995" y="240" as="targetPoint"/>
                    </mxGeometry>
                </mxCell>
                <mxCell id="2MPzYWeAmWjRKUz-pr3W-145" value="" style="endArrow=none;html=1;rounded=0;entryX=0.5;entryY=0;entryDx=0;entryDy=0;exitX=0.5;exitY=1;exitDx=0;exitDy=0;labelBackgroundColor=#EEEEEE;strokeColor=#FFFFFF;fontColor=default;labelBorderColor=default;" parent="1" source="EPYa3nC2cuuESbHwCl80-4" target="2MPzYWeAmWjRKUz-pr3W-137" edge="1">
                    <mxGeometry relative="1" as="geometry">
                        <mxPoint x="2700" y="250" as="sourcePoint"/>
                        <mxPoint x="2729.9999999999995" y="250" as="targetPoint"/>
                    </mxGeometry>
                </mxCell>
                <mxCell id="2MPzYWeAmWjRKUz-pr3W-146" value="" style="endArrow=none;html=1;rounded=0;entryX=0;entryY=0.5;entryDx=0;entryDy=0;exitX=0.5;exitY=0;exitDx=0;exitDy=0;labelBackgroundColor=#EEEEEE;strokeColor=#FFFFFF;fontColor=default;labelBorderColor=default;" parent="1" source="2MPzYWeAmWjRKUz-pr3W-16" target="2MPzYWeAmWjRKUz-pr3W-136" edge="1">
                    <mxGeometry relative="1" as="geometry">
                        <mxPoint x="2410" y="270" as="sourcePoint"/>
                        <mxPoint x="2570" y="270" as="targetPoint"/>
                        <Array as="points">
                            <mxPoint x="2330" y="230"/>
                        </Array>
                    </mxGeometry>
                </mxCell>
                <mxCell id="2MPzYWeAmWjRKUz-pr3W-147" value="1" style="resizable=0;html=1;align=right;verticalAlign=bottom;fillColor=#F5AB50;strokeColor=#909090;fontColor=default;labelBorderColor=default;" parent="2MPzYWeAmWjRKUz-pr3W-146" connectable="0" vertex="1">
                    <mxGeometry x="1" relative="1" as="geometry"/>
                </mxCell>
                <mxCell id="2MPzYWeAmWjRKUz-pr3W-148" value="" style="shape=link;html=1;rounded=0;entryX=1;entryY=0.5;entryDx=0;entryDy=0;exitX=0;exitY=0.5;exitDx=0;exitDy=0;labelBackgroundColor=#EEEEEE;strokeColor=#FFFFFF;fontColor=default;labelBorderColor=default;" parent="1" source="2MPzYWeAmWjRKUz-pr3W-137" target="2MPzYWeAmWjRKUz-pr3W-136" edge="1">
                    <mxGeometry relative="1" as="geometry">
                        <mxPoint x="2410" y="270" as="sourcePoint"/>
                        <mxPoint x="2570" y="270" as="targetPoint"/>
                    </mxGeometry>
                </mxCell>
                <mxCell id="2MPzYWeAmWjRKUz-pr3W-149" value="N" style="resizable=0;html=1;align=right;verticalAlign=bottom;fillColor=#F5AB50;strokeColor=#909090;fontColor=default;labelBorderColor=default;" parent="2MPzYWeAmWjRKUz-pr3W-148" connectable="0" vertex="1">
                    <mxGeometry x="1" relative="1" as="geometry">
                        <mxPoint y="-10" as="offset"/>
                    </mxGeometry>
                </mxCell>
                <mxCell id="EPYa3nC2cuuESbHwCl80-1" value="board_id" style="ellipse;whiteSpace=wrap;html=1;align=center;fontStyle=4;fillColor=#FFFFFF;strokeColor=#001DBC;fontColor=#000000;labelBorderColor=default;" parent="1" vertex="1">
                    <mxGeometry x="1710" y="650" width="100" height="40" as="geometry"/>
                </mxCell>
                <mxCell id="EPYa3nC2cuuESbHwCl80-2" value="" style="endArrow=none;html=1;rounded=0;entryX=0.5;entryY=0;entryDx=0;entryDy=0;exitX=0.5;exitY=1;exitDx=0;exitDy=0;labelBackgroundColor=#EEEEEE;strokeColor=#182E3E;fontColor=default;labelBorderColor=default;" parent="1" source="2MPzYWeAmWjRKUz-pr3W-25" target="EPYa3nC2cuuESbHwCl80-1" edge="1">
                    <mxGeometry relative="1" as="geometry">
                        <mxPoint x="1750" y="610" as="sourcePoint"/>
                        <mxPoint x="1870" y="580" as="targetPoint"/>
                    </mxGeometry>
                </mxCell>
                <mxCell id="EPYa3nC2cuuESbHwCl80-3" value="name" style="ellipse;whiteSpace=wrap;html=1;align=center;rounded=0;sketch=0;fontColor=#000000;strokeColor=#001DBC;fillColor=#FFFFFF;labelBorderColor=default;" parent="1" vertex="1">
                    <mxGeometry x="2270" y="460" width="100" height="40" as="geometry"/>
                </mxCell>
                <mxCell id="EPYa3nC2cuuESbHwCl80-4" value="&lt;span style=&quot;border-bottom: 1px dotted&quot;&gt;name&lt;/span&gt;" style="ellipse;whiteSpace=wrap;html=1;align=center;rounded=0;sketch=0;fontColor=#000000;strokeColor=#001DBC;fillColor=#FFFFFF;labelBorderColor=default;" parent="1" vertex="1">
                    <mxGeometry x="2580" y="130" width="100" height="40" as="geometry"/>
                </mxCell>
                <mxCell id="EPYa3nC2cuuESbHwCl80-6" style="edgeStyle=orthogonalEdgeStyle;curved=0;rounded=1;sketch=0;orthogonalLoop=1;jettySize=auto;html=1;exitX=0.5;exitY=1;exitDx=0;exitDy=0;entryX=0;entryY=1;entryDx=0;entryDy=0;fontColor=default;strokeColor=#FFFFFF;labelBorderColor=default;" parent="1" source="2MPzYWeAmWjRKUz-pr3W-42" target="2MPzYWeAmWjRKUz-pr3W-42" edge="1">
                    <mxGeometry relative="1" as="geometry"/>
                </mxCell>
            </root>
        </mxGraphModel>
    </diagram>
</mxfile>